  <svg
      class="page-logo"
      version="1.1"
      id="Ebene_1"
      xmlns="http://www.w3.org/2000/svg"
      xmlns:xlink="http://www.w3.org/1999/xlink"
      viewBox="0 0 118 20"
      style="enable-background: new 0 0 118 20"
      xml:space="preserve"
      
      
    >
      <g id="Ebene_4">
        <path fill="white"
          
          id="a"
          d="M39.4,4.9H36V7c-1-1.6-2.7-2.5-4.6-2.5c-4.3,0-7.7,3.5-7.7,7.8c0,4.1,3.3,7.6,7.5,7.6c1.9,0,3.7-0.7,4.7-2.4v2h5.5
		    v-3.1h-2V4.9z M31.6,16.7c-2.4,0-4.4-2-4.4-4.4c0-2.5,1.9-4.5,4.4-4.5c2.4,0,4.4,2,4.4,4.4C36.1,14.7,34.1,16.7,31.6,16.7z"
        ></path>
        <polygon fill="white"
          id="k_1_"
          points="115.7,16.5 111.4,12 115.4,8.1 117.2,8.1 117.2,4.9 110,4.9 110,7.7 111.5,7.7 107.7,11.5 107.7,0
		    102.4,0 102.4,3.1 104.4,3.1 104.4,16.5 102.4,16.5 102.4,19.6 109.1,19.6 109.1,16.5 107.7,16.5 107.7,12.6 111.2,16.5 110,16.5
		    110,19.6 118,19.6 118,16.5 	"
        ></polygon>
        <path fill="white"
          id="r_1_"
          d="M99,12.8c0-1.4,0.2-2.6,1.3-3.5c0.8-0.7,1.8-1,2.9-1.1V4.8c-1.9,0.1-3.6,0.9-4.4,2.7V4.9h-5V8h1.9v8.4h-1.9v3.1
		    h7.2v-3.1h-2V12.8z"
        ></path>
        <path fill="white"
          id="e"
          d="M93.7,11.4l-3,1.7c-0.1,1.5-0.9,2.6-2.2,3.3c-1.8,1-4.2,0.7-5.6-0.8l10.3-5.9l-0.5-1.1c-1-1.8-2.5-3.1-4.5-3.7
		    c-2-0.5-4.2-0.3-6,0.7c-3.8,2.2-4.9,6.8-2.7,10.6c2.2,3.7,6.8,4.9,10.5,2.8C92.7,17.4,94.1,14.4,93.7,11.4z M83.5,8.2
		    c1.9-1.1,4.2-0.9,5.7,0.7l-7.7,4.5C80.9,11.5,81.8,9.2,83.5,8.2z"
        ></path>
        <path fill="white"
          id="r"
          d="M20.5,12.8c0-1.4,0.2-2.6,1.3-3.5c0.8-0.7,1.8-1,2.9-1.1V4.8c-1.9,0.1-3.6,0.9-4.4,2.7V4.9h-4.8V8h1.6v8.4h-1.6v3.1
		    h6.9v-3.1h-1.9C20.5,16.4,20.5,12.8,20.5,12.8z"
        ></path>
        <polygon fill="white"
          id="k"
          points="7.5,7.7 9.1,7.7 5.3,11.5 5.3,0 0,0 0,3.1 1.9,3.1 1.9,16.5 0,16.5 0,19.6 6.6,19.6 6.6,16.5 5.3,16.5
		    5.3,12.6 8.8,16.5 7.5,16.5 7.5,19.6 14.5,19.6 14.5,16.5 13.2,16.5 8.9,12 13,8.1 14.5,8.1 14.5,4.9 7.5,4.9 	"
        ></polygon>
        <polygon fill="white"
          id="w"
          points="72.1,4.9 72.1,8.1 73.8,8.1 71.5,15 71.5,15 68.6,5.5 65.9,5.5 62.8,15 62.8,15 60.6,8.1 62.3,8.1
		    62.3,4.9 55.4,4.9 55.4,8.1 57.3,8.1 60.8,19.6 64,19.6 67.1,11 69.8,19.6 73.1,19.6 77.1,8.1 79,8.1 79,4.9 	"
        ></polygon>
        <path fill="white"
          id="f"
          d="M48.6,0c-0.1,0-0.3,0-0.4,0c-3,0.2-4.8,1.8-4.9,4.9h-1.9V8h1.9v8.4h-1.9v3.1h7.2v-3.1h-1.9V8.1h1.9V4.9h-1.9
		    c0.1-1,0.6-1.7,1.6-1.9c0.1,0,0.2,0,0.4-0.1c0.1,0,0.3,0,0.4,0V0C48.9,0,48.7,0,48.6,0z"
        ></path>
        <polygon fill="white"
          id="t"
          points="53.9,16.5 53.9,8.1 56.4,8.1 56.4,4.9 53.9,4.9 53.9,0 50.5,0 50.5,4.9 48.2,4.9 48.2,8.1 50.5,8.1
		    50.5,19.6 56.6,19.6 56.6,16.5 	"
        ></polygon>
      </g>
    </svg>