<?xml version="1.0" encoding="UTF-8"?>
<svg width="40px" height="40px" viewBox="0 0 40 40" version="1.1" xmlns="http://www.w3.org/2000/svg" xmlns:xlink="http://www.w3.org/1999/xlink">
    <!-- Generator: Sketch 47.1 (45422) - http://www.bohemiancoding.com/sketch -->
    <title>silder_nav_right</title>
    <desc>Created with Sketch.</desc>
    <defs></defs>
    <g id="Page-1" stroke="none" stroke-width="1" fill="none" fill-rule="evenodd">
        <g id="Desktop_Exercise02" transform="translate(-1200.000000, -250.000000)">
            <g id="Slideshow" transform="translate(0.000000, 50.000000)">
                <g id="silder_nav_right" transform="translate(1220.000000, 220.000000) rotate(-180.000000) translate(-1220.000000, -220.000000) translate(1200.000000, 200.000000)">
                    <circle id="Oval" fill="#000000" opacity="0.425837862" cx="20" cy="20" r="20"></circle>
                    <path d="M18.7886062,24.4262807 L18.7886062,14.1368266 C18.7886062,13.4740849 18.2513479,12.9368266 17.5886062,12.9368266 C16.9258645,12.9368266 16.3886062,13.4740849 16.3886062,14.1368266 L16.3886062,25.6262807 C16.3886062,26.2890224 16.9258645,26.8262807 17.5886062,26.8262807 L29.0780604,26.8262807 C29.7408021,26.8262807 30.2780604,26.2890224 30.2780604,25.6262807 C30.2780604,24.963539 29.7408021,24.4262807 29.0780604,24.4262807 L18.7886062,24.4262807 Z" id="Rectangle-2" fill="#FFFFFF" fill-rule="nonzero" transform="translate(23.333333, 19.881554) rotate(-315.000000) translate(-23.333333, -19.881554) "></path>
                </g>
            </g>
        </g>
    </g>
</svg>